<svg xmlns="http://www.w3.org/2000/svg" viewBox="0 0 24.04 25.08" width="24.04" height="25.08" fill="#ffffff"><path d="M7.45,4.29c0,0,1.52,1.53,0.27,3.19s-2.15,2.93,1.2,6.85s6.01,4.19,7.25,3.37c1.24-0.81,2.27-1.43,3.36-0.73&#xA;&#x9;&#x9;&#x9;c1.09,0.7,5.07,2.8,4.45,4.56c-0.62,1.76-2.75,4.4-7.79,3.29S-1.56,15.91,0.16,3.62c0,0,0.48-2.48,3.33-3.58&#xA;&#x9;&#x9;&#x9;c0,0,0.54-0.25,1.2,0.46S7.45,4.29,7.45,4.29z"></path><path d="M20.95,5.36c0.1,0.14,0.2,0.28,0.3,0.42c0,0.04,0.03,0.07,0.06,0.09c0.09,0.14,0.17,0.27,0.26,0.41&#xA;&#x9;&#x9;&#x9;&#x9;c0.01,0.04,0.02,0.08,0.05,0.1c0.07,0.13,0.14,0.26,0.21,0.4c0.02,0.05,0.05,0.1,0.07,0.14c0.05,0.11,0.11,0.22,0.16,0.33&#xA;&#x9;&#x9;&#x9;&#x9;c0.03,0.06,0.05,0.13,0.08,0.19c0.04,0.11,0.09,0.21,0.13,0.32c0.02,0.05,0.04,0.11,0.06,0.16c0.04,0.13,0.08,0.26,0.12,0.39&#xA;&#x9;&#x9;&#x9;&#x9;c0.01,0.04,0.03,0.08,0.04,0.12c0.02,0.12,0.05,0.24,0.09,0.36c0,0.06,0.01,0.12,0.04,0.18c0.02,0.11,0.05,0.22,0.07,0.33&#xA;&#x9;&#x9;&#x9;&#x9;c-0.01,0.06,0.01,0.12,0.03,0.18c0.01,0.1,0.03,0.2,0.04,0.3c0.01,0.06,0.01,0.13,0.02,0.19c0.01,0.13,0.02,0.26,0.04,0.38&#xA;&#x9;&#x9;&#x9;&#x9;c-0.01,0.05-0.01,0.1,0.01,0.15c0,0.11,0.01,0.22,0.01,0.33c0,0.05,0,0.11,0,0.16c-0.01,0.12-0.03,0.24-0.04,0.36&#xA;&#x9;&#x9;&#x9;&#x9;c-0.03,0.05-0.05,0.11-0.08,0.16c-0.12,0.16-0.28,0.26-0.48,0.32c-0.1,0-0.19,0-0.29,0c-0.21-0.06-0.38-0.18-0.5-0.37&#xA;&#x9;&#x9;&#x9;&#x9;c-0.02-0.04-0.03-0.07-0.05-0.11c-0.01-0.11-0.02-0.22-0.03-0.34c0.02-0.07,0.02-0.13,0-0.2c0.01-0.11,0-0.22-0.01-0.34&#xA;&#x9;&#x9;&#x9;&#x9;c0.01-0.05,0.01-0.1-0.01-0.15c0-0.12-0.01-0.24-0.04-0.36c0.01-0.04,0-0.09-0.02-0.13c0-0.12-0.02-0.24-0.06-0.36&#xA;&#x9;&#x9;&#x9;&#x9;c0.01-0.05-0.01-0.1-0.03-0.15c-0.02-0.13-0.04-0.27-0.1-0.39c-0.01-0.06-0.03-0.12-0.04-0.18c-0.03-0.12-0.05-0.23-0.11-0.34&#xA;&#x9;&#x9;&#x9;&#x9;c0-0.06-0.02-0.11-0.06-0.16c-0.03-0.14-0.09-0.28-0.16-0.41c-0.01-0.04-0.02-0.08-0.05-0.11c-0.05-0.15-0.11-0.29-0.2-0.41&#xA;&#x9;&#x9;&#x9;&#x9;c0-0.05-0.02-0.07-0.05-0.1c-0.06-0.14-0.13-0.27-0.22-0.39c-0.03-0.05-0.06-0.11-0.09-0.16c-0.09-0.12-0.17-0.25-0.26-0.37&#xA;&#x9;&#x9;&#x9;&#x9;c-0.03-0.04-0.06-0.07-0.09-0.11c-0.09-0.15-0.2-0.28-0.32-0.4c-0.03-0.04-0.07-0.07-0.1-0.11c-0.12-0.15-0.26-0.29-0.41-0.41&#xA;&#x9;&#x9;&#x9;&#x9;c-0.03-0.03-0.07-0.07-0.1-0.1c-0.14-0.16-0.31-0.28-0.47-0.4c-0.06-0.05-0.12-0.09-0.18-0.14C18,4.53,17.81,4.39,17.6,4.29&#xA;&#x9;&#x9;&#x9;&#x9;c-0.06-0.05-0.12-0.09-0.2-0.11c-0.26-0.17-0.54-0.3-0.83-0.4c-0.1-0.06-0.21-0.1-0.33-0.13c-0.5-0.2-1.03-0.33-1.57-0.39&#xA;&#x9;&#x9;&#x9;&#x9;c-0.13-0.04-0.27-0.04-0.41-0.06c-0.33-0.05-0.67,0.01-0.99-0.08c-0.18-0.08-0.3-0.21-0.4-0.37c-0.01-0.04-0.02-0.08-0.03-0.12&#xA;&#x9;&#x9;&#x9;&#x9;c0-0.11-0.01-0.23-0.01-0.34c0.01-0.04,0.03-0.08,0.04-0.12C12.94,2,13.06,1.88,13.2,1.78c0.15-0.06,0.31-0.07,0.48-0.07&#xA;&#x9;&#x9;&#x9;&#x9;c0.41,0,0.81,0.05,1.21,0.09c0.51,0.08,1.01,0.21,1.5,0.34c0.02,0.02,0.05,0.03,0.08,0.02l0,0c0.12,0.06,0.25,0.1,0.38,0.14&#xA;&#x9;&#x9;&#x9;&#x9;c0.29,0.12,0.57,0.25,0.86,0.37c0.09,0.05,0.18,0.1,0.26,0.14c0.22,0.13,0.44,0.25,0.65,0.38c0.05,0.04,0.09,0.09,0.15,0.11&#xA;&#x9;&#x9;&#x9;&#x9;c0.18,0.13,0.35,0.26,0.53,0.39c0.05,0.04,0.1,0.07,0.15,0.11c0.15,0.14,0.31,0.27,0.46,0.41c0.03,0.03,0.07,0.07,0.1,0.1&#xA;&#x9;&#x9;&#x9;&#x9;c0.14,0.14,0.27,0.28,0.41,0.41c0.03,0.04,0.06,0.07,0.09,0.11c0.11,0.13,0.22,0.27,0.33,0.4C20.89,5.29,20.92,5.33,20.95,5.36z"></path><path d="M12.89,5.19c-0.08-0.11-0.11-0.24-0.14-0.37c0-0.03,0-0.06,0-0.1c0.03-0.12,0.06-0.23,0.12-0.34&#xA;&#x9;&#x9;&#x9;&#x9;c0.04-0.05,0.07-0.1,0.11-0.15c0.21-0.16,0.44-0.2,0.7-0.19c0.51,0.02,1.01,0.09,1.5,0.2c0.14,0.04,0.29,0.08,0.43,0.12&#xA;&#x9;&#x9;&#x9;&#x9;c0.3,0.12,0.59,0.23,0.89,0.35c0.02,0.02,0.04,0.04,0.08,0.03l0,0c0.06,0.05,0.13,0.09,0.2,0.11c0.23,0.13,0.45,0.27,0.68,0.4&#xA;&#x9;&#x9;&#x9;&#x9;c0.04,0.05,0.08,0.1,0.15,0.11c0.17,0.14,0.34,0.27,0.52,0.41c0.04,0.03,0.07,0.07,0.11,0.1c0.14,0.14,0.27,0.27,0.41,0.41&#xA;&#x9;&#x9;&#x9;&#x9;c0.03,0.04,0.07,0.07,0.1,0.11c0.11,0.13,0.21,0.26,0.32,0.39c0.01,0.05,0.05,0.09,0.09,0.12c0.09,0.13,0.18,0.26,0.27,0.4&#xA;&#x9;&#x9;&#x9;&#x9;c0.03,0.06,0.07,0.11,0.1,0.17c0.07,0.12,0.14,0.24,0.2,0.36c0.02,0.04,0.03,0.07,0.05,0.11c0.07,0.14,0.13,0.28,0.2,0.42&#xA;&#x9;&#x9;&#x9;&#x9;c0.01,0.04,0.03,0.08,0.04,0.12c0.05,0.12,0.09,0.25,0.14,0.37c0.01,0.03,0.02,0.06,0.03,0.09c0.04,0.14,0.08,0.28,0.12,0.43&#xA;&#x9;&#x9;&#x9;&#x9;c-0.01,0.05,0,0.09,0.03,0.13c0.03,0.13,0.05,0.26,0.08,0.39c-0.01,0.05,0,0.09,0.02,0.13c0.02,0.14,0.03,0.28,0.05,0.41&#xA;&#x9;&#x9;&#x9;&#x9;c0,0.03,0,0.07,0.01,0.1c0.01,0.13,0.01,0.26,0.02,0.39c0,0.03,0,0.07,0,0.1c-0.01,0.13-0.02,0.26-0.02,0.39&#xA;&#x9;&#x9;&#x9;&#x9;c-0.01,0.04-0.03,0.08-0.04,0.12c-0.08,0.16-0.2,0.27-0.34,0.37c-0.22,0.08-0.44,0.09-0.66-0.01c-0.15-0.09-0.26-0.22-0.34-0.37&#xA;&#x9;&#x9;&#x9;&#x9;c-0.01-0.04-0.02-0.08-0.03-0.12c-0.01-0.11-0.01-0.23-0.02-0.34c0.01-0.05,0.02-0.1,0-0.15c0.01-0.11,0-0.22-0.02-0.33&#xA;&#x9;&#x9;&#x9;&#x9;c0.01-0.06,0-0.12-0.02-0.18c0-0.12-0.02-0.24-0.06-0.36c-0.01-0.06-0.02-0.12-0.03-0.18c-0.02-0.11-0.04-0.21-0.08-0.31&#xA;&#x9;&#x9;&#x9;&#x9;c-0.01-0.08-0.03-0.15-0.07-0.21c-0.02-0.12-0.06-0.23-0.12-0.33c0-0.06-0.03-0.11-0.06-0.15c-0.04-0.12-0.09-0.23-0.16-0.33&#xA;&#x9;&#x9;&#x9;&#x9;c-0.01-0.07-0.05-0.13-0.09-0.18c-0.07-0.15-0.16-0.28-0.26-0.41c-0.03-0.04-0.06-0.08-0.09-0.12c-0.1-0.14-0.19-0.28-0.32-0.39&#xA;&#x9;&#x9;&#x9;&#x9;c-0.03-0.04-0.07-0.07-0.1-0.11c-0.12-0.15-0.27-0.28-0.42-0.41C17.1,6.81,17.06,6.76,17,6.74c-0.18-0.15-0.36-0.3-0.58-0.4&#xA;&#x9;&#x9;&#x9;&#x9;c-0.06-0.07-0.14-0.1-0.22-0.14c-0.27-0.16-0.56-0.3-0.86-0.38c-0.14-0.07-0.28-0.11-0.43-0.14c-0.44-0.13-0.89-0.18-1.34-0.19&#xA;&#x9;&#x9;&#x9;&#x9;c-0.21,0-0.39-0.05-0.56-0.17C12.97,5.28,12.93,5.23,12.89,5.19z"></path><path d="M15.82,8.79c-0.14-0.16-0.3-0.29-0.48-0.4c-0.05-0.04-0.09-0.09-0.15-0.1c-0.3-0.21-0.62-0.34-0.98-0.41&#xA;&#x9;&#x9;&#x9;&#x9;c-0.06-0.02-0.12-0.04-0.19-0.05c-0.27-0.03-0.53-0.06-0.8-0.09c-0.18-0.07-0.31-0.2-0.42-0.35c-0.02-0.05-0.04-0.1-0.06-0.15&#xA;&#x9;&#x9;&#x9;&#x9;c0-0.11-0.01-0.22-0.01-0.33c0.02-0.06,0.03-0.11,0.05-0.17c0.08-0.15,0.2-0.26,0.35-0.35c0.18-0.06,0.36-0.07,0.55-0.05&#xA;&#x9;&#x9;&#x9;&#x9;c0.25,0.03,0.5,0.06,0.75,0.09c0.37,0.09,0.72,0.21,1.07,0.36c0.09,0.05,0.18,0.09,0.27,0.14c0.18,0.12,0.37,0.25,0.55,0.37&#xA;&#x9;&#x9;&#x9;&#x9;c0.05,0.04,0.1,0.07,0.15,0.11c0.14,0.13,0.28,0.26,0.42,0.4c0.04,0.05,0.08,0.09,0.12,0.14c0.11,0.13,0.22,0.26,0.32,0.39&#xA;&#x9;&#x9;&#x9;&#x9;c0,0.04,0.03,0.07,0.06,0.1c0.08,0.14,0.17,0.27,0.25,0.41c0.01,0.05,0.03,0.09,0.07,0.13c0.05,0.12,0.11,0.24,0.16,0.36&#xA;&#x9;&#x9;&#x9;&#x9;c0,0.06,0.02,0.11,0.05,0.15c0.04,0.13,0.08,0.26,0.12,0.39c-0.01,0.05,0.01,0.09,0.03,0.13c0.02,0.11,0.04,0.22,0.07,0.33&#xA;&#x9;&#x9;&#x9;&#x9;c0.01,0.04,0.01,0.08,0.02,0.13c0.01,0.13,0.02,0.26,0.04,0.39c0,0.05,0,0.1,0.01,0.16c-0.01,0.11-0.01,0.23-0.02,0.34&#xA;&#x9;&#x9;&#x9;&#x9;c-0.02,0.06-0.03,0.12-0.05,0.18c-0.08,0.15-0.2,0.26-0.34,0.35c-0.23,0.09-0.46,0.08-0.69-0.03c-0.12-0.1-0.24-0.21-0.31-0.36&#xA;&#x9;&#x9;&#x9;&#x9;c-0.01-0.03-0.02-0.06-0.03-0.09c-0.01-0.12-0.01-0.25-0.02-0.37c0.01-0.07,0.01-0.14-0.01-0.21c0-0.11-0.01-0.21-0.04-0.31&#xA;&#x9;&#x9;&#x9;&#x9;c0.01-0.05-0.01-0.1-0.03-0.15c-0.02-0.15-0.06-0.29-0.13-0.42c0-0.06-0.02-0.11-0.06-0.15c-0.04-0.14-0.11-0.26-0.18-0.37&#xA;&#x9;&#x9;&#x9;&#x9;c-0.03-0.06-0.07-0.11-0.1-0.17c-0.07-0.13-0.16-0.24-0.27-0.35C15.92,8.87,15.87,8.83,15.82,8.79z"></path></svg>