<svg xmlns="http://www.w3.org/2000/svg" viewBox="0 0 27.64 25.07" width="27.64" height="25.07" fill="#ffffff"><path d="M12.92,12.02c-0.46-0.26-1.03-0.14-1.38,0.26c-0.48,0.55-0.48,1.65-0.02,2.22c0.34,0.42,0.93,0.56,1.38,0.3&#xA;&#x9;&#x9;c0.53-0.3,0.71-0.8,0.72-1.39C13.61,12.84,13.46,12.33,12.92,12.02z M12.92,12.02c-0.46-0.26-1.03-0.14-1.38,0.26&#xA;&#x9;&#x9;c-0.48,0.55-0.48,1.65-0.02,2.22c0.34,0.42,0.93,0.56,1.38,0.3c0.53-0.3,0.71-0.8,0.72-1.39C13.61,12.84,13.46,12.33,12.92,12.02z&#xA;&#x9;&#x9; M13.81,0C6.19,0,0,5.61,0,12.53c0,3.23,1.37,6.16,3.58,8.39H3.56c0,0,0.03,0.03,0.08,0.06c0.07,0.07,0.13,0.13,0.2,0.19&#xA;&#x9;&#x9;c0.21,0.26,0.4,0.72,0.02,1.38c-0.5,0.86-1.49,1.67-2.23,2.06c-0.15,0.08-0.13,0.31,0.03,0.34c1.18,0.23,2.56,0.13,3.83-0.24&#xA;&#x9;&#x9;c1.47-0.43,2.21-0.9,3.74-0.36v-0.01c1.44,0.46,2.98,0.73,4.59,0.73c7.64,0,13.82-5.61,13.82-12.53S21.45,0,13.81,0z M8.55,16.42&#xA;&#x9;&#x9;c-1.44,0.02-2.88,0.01-4.32,0.01c-0.43,0-0.84-0.08-1.07-0.5c-0.24-0.46-0.08-0.88,0.2-1.27c1.05-1.41,2.11-2.82,3.16-4.23&#xA;&#x9;&#x9;c0.1-0.13,0.25-0.23,0.26-0.5h-2.3c-0.21,0-0.42,0.02-0.62-0.03C3.43,9.84,3.18,9.57,3.18,9.13c0-0.46,0.25-0.79,0.71-0.79&#xA;&#x9;&#x9;c1.53-0.03,3.07-0.04,4.6,0c0.66,0.02,0.95,0.62,0.68,1.24C8.99,10,8.71,10.36,8.45,10.72c-0.98,1.3-1.94,2.59-3,4&#xA;&#x9;&#x9;c1.08,0,2.03-0.01,2.98,0c0.45,0.01,0.88,0.08,0.99,0.63C9.54,16.03,9.24,16.42,8.55,16.42z M15.41,15.37&#xA;&#x9;&#x9;c0,0.44-0.07,0.84-0.51,1.05c-0.43,0.21-0.81,0.1-1.11-0.27c-0.08-0.1-0.14-0.13-0.28-0.05c-1.8,0.96-3.38,0.35-3.95-1.53&#xA;&#x9;&#x9;c-0.38-1.23-0.22-2.38,0.58-3.43c0.79-1.03,2.45-1.39,3.51-0.35c0.3-0.36,0.63-0.67,1.16-0.46c0.53,0.23,0.59,0.68,0.59,1.18&#xA;&#x9;&#x9;C15.41,12.8,15.41,14.09,15.41,15.37z M17.94,15.51c-0.01,0.64-0.33,1.02-0.88,1.01c-0.54,0-0.87-0.38-0.87-1.03&#xA;&#x9;&#x9;c-0.01-2.28-0.01-4.54,0-6.81c0-0.68,0.31-1.03,0.86-1.04c0.57-0.02,0.88,0.36,0.89,1.05V15.51z M23.04,16.26&#xA;&#x9;&#x9;c-1,0.55-2.04,0.53-3.03-0.07c-1.45-0.87-1.9-3.09-0.96-4.63c0.85-1.38,2.68-1.83,4.07-0.98c1.05,0.65,1.45,1.65,1.47,2.85&#xA;&#x9;&#x9;C24.56,14.64,24.14,15.66,23.04,16.26z M22.2,12.07c-0.48-0.33-1.1-0.23-1.48,0.23c-0.48,0.57-0.49,1.63-0.01,2.21&#xA;&#x9;&#x9;c0.37,0.43,1.03,0.55,1.48,0.23c0.46-0.32,0.61-0.8,0.62-1.34C22.8,12.87,22.66,12.4,22.2,12.07z M12.92,12.02&#xA;&#x9;&#x9;c-0.46-0.26-1.03-0.14-1.38,0.26c-0.48,0.55-0.48,1.65-0.02,2.22c0.34,0.42,0.93,0.56,1.38,0.3c0.53-0.3,0.71-0.8,0.72-1.39&#xA;&#x9;&#x9;C13.61,12.84,13.46,12.33,12.92,12.02z M12.92,12.02c-0.46-0.26-1.03-0.14-1.38,0.26c-0.48,0.55-0.48,1.65-0.02,2.22&#xA;&#x9;&#x9;c0.34,0.42,0.93,0.56,1.38,0.3c0.53-0.3,0.71-0.8,0.72-1.39C13.61,12.84,13.46,12.33,12.92,12.02z M12.92,12.02&#xA;&#x9;&#x9;c-0.46-0.26-1.03-0.14-1.38,0.26c-0.48,0.55-0.48,1.65-0.02,2.22c0.34,0.42,0.93,0.56,1.38,0.3c0.53-0.3,0.71-0.8,0.72-1.39&#xA;&#x9;&#x9;C13.61,12.84,13.46,12.33,12.92,12.02z"></path></svg>